<?xml version="1.0" encoding="UTF-8"?>
<svg width="30px" height="30px" viewBox="0 0 30 30" version="1.1" xmlns="http://www.w3.org/2000/svg" xmlns:xlink="http://www.w3.org/1999/xlink">
    <!-- Generator: Sketch 59.1 (86144) - https://sketch.com -->
    <title>画板</title>
    <desc>Created with Sketch.</desc>
    <g id="画板" stroke="none" stroke-width="1" fill="none" fill-rule="evenodd">
        <g id="Security-HSS" transform="translate(1.000000, 0.000000)" fill="#221815" fill-rule="nonzero">
            <path d="M14.3181818,16.3636364 C13.1590909,16.3636364 12.2727273,17.25 12.2727273,18.4090909 C12.2727273,19.5681818 13.1590909,20.4545455 14.3181818,20.4545455 C15.4772727,20.4545455 16.3636364,19.5681818 16.3636364,18.4090909 C16.3636364,17.25 15.4772727,16.3636364 14.3181818,16.3636364 Z M14.3181818,19.7727273 C13.5681818,19.7727273 12.9545455,19.1590909 12.9545455,18.4090909 C12.9545455,17.6590909 13.5681818,17.0454545 14.3181818,17.0454545 C15.0681818,17.0454545 15.6818182,17.6590909 15.6818182,18.4090909 C15.6818182,19.1590909 15.0681818,19.7727273 14.3181818,19.7727273 Z M10.2272727,12.9545455 L18.4090909,12.9545455 L18.4090909,12.2727273 L10.2272727,12.2727273 L10.2272727,12.9545455 Z M10.2272727,10.9090909 L18.4090909,10.9090909 L18.4090909,10.2272727 L10.2272727,10.2272727 L10.2272727,10.9090909 Z M26.5227273,5.79545455 C25.0909091,5.31818182 22.2272727,4.36363636 20.7954545,3.68181818 C17.9318182,2.25 16.8409091,1.29545455 15.75,0.477272727 C15.3409091,0.136363636 14.8636364,0 14.3181818,0 C14.3181818,0 14.3181818,0 14.3181818,0 C14.3181818,0 14.3181818,0 14.3181818,0 C13.7727273,0 13.2954545,0.136363636 12.8863636,0.409090909 C11.7954545,1.22727273 10.7045455,2.18181818 7.84090909,3.61363636 C6.40909091,4.29545455 3.54545455,5.25 2.11363636,5.72727273 C1.15909091,6.06818182 0.613636364,6.88636364 0.681818182,7.84090909 C0.954545455,10.9772727 1.70454545,17.0454545 3.54545455,20.7954545 C5.72727273,25.0909091 11.1136364,28.4318182 13.2272727,29.7272727 C13.5681818,29.9318182 13.9090909,30 14.3181818,30 C14.7272727,30 15.0681818,29.9318182 15.4090909,29.7272727 C17.5227273,28.4318182 22.9090909,25.0909091 25.0909091,20.7954545 C26.9318182,17.0454545 27.6818182,10.9772727 27.9545455,7.97727273 C28.0227273,6.95454545 27.4090909,6.06818182 26.5227273,5.79545455 Z M23.8636364,20.1818182 C22.5,22.9090909 19.4318182,25.7045455 14.7272727,28.5681818 C14.5909091,28.5681818 14.4545455,28.6363636 14.3181818,28.6363636 C14.1818182,28.6363636 14.0454545,28.5681818 13.9772727,28.5 C9.20454545,25.7045455 6.13636364,22.8409091 4.77272727,20.1818182 C2.86363636,16.3636364 2.18181818,9.75 2.04545455,7.84090909 C1.97727273,7.36363636 2.45454545,7.15909091 2.59090909,7.09090909 L3.13636364,6.88636364 C4.70454545,6.34090909 7.15909091,5.52272727 8.52272727,4.84090909 C11.1136364,3.54545455 12.3409091,2.59090909 13.3636364,1.84090909 C13.5,1.70454545 13.6363636,1.63636364 13.7727273,1.5 C13.7727273,1.43181818 13.9772727,1.36363636 14.25,1.36363636 L14.25,1.36363636 L14.3181818,1.36363636 L14.3863636,1.36363636 C14.6590909,1.36363636 14.8636364,1.43181818 14.9318182,1.5 C15.0681818,1.63636364 15.2045455,1.70454545 15.3409091,1.84090909 C16.2954545,2.59090909 17.5227273,3.54545455 20.1818182,4.84090909 C21.5454545,5.52272727 23.9318182,6.34090909 25.5681818,6.88636364 L26.1136364,7.09090909 C26.25,7.15909091 26.6590909,7.29545455 26.6590909,7.84090909 C26.4545455,9.75 25.7727273,16.3636364 23.8636364,20.1818182 Z M19.0909091,6.81818182 L9.54545455,6.81818182 C8.79545455,6.81818182 8.18181818,7.43181818 8.18181818,8.18181818 L8.18181818,21.8181818 C8.18181818,22.5681818 8.79545455,23.1818182 9.54545455,23.1818182 L19.0909091,23.1818182 C19.8409091,23.1818182 20.4545455,22.5681818 20.4545455,21.8181818 L20.4545455,8.18181818 C20.4545455,7.43181818 19.8409091,6.81818182 19.0909091,6.81818182 Z M19.7727273,21.8181818 C19.7727273,22.2272727 19.5,22.5 19.0909091,22.5 L9.54545455,22.5 C9.13636364,22.5 8.86363636,22.2272727 8.86363636,21.8181818 L8.86363636,8.18181818 C8.86363636,7.77272727 9.13636364,7.5 9.54545455,7.5 L19.0909091,7.5 C19.5,7.5 19.7727273,7.77272727 19.7727273,8.18181818 L19.7727273,21.8181818 Z" id="形状"></path>
        </g>
    </g>
</svg>